<svg width="42" height="30" viewBox="0 0 42 30" fill="none" xmlns="http://www.w3.org/2000/svg">
<g clip-path="url(#clip0_2_12)">
<path fill-rule="evenodd" clip-rule="evenodd" d="M3.62143 15.7494L15.1406 3.95374C18.2132 0.807425 23.2546 0.747647 26.4009 3.82022C26.4459 3.8642 26.4904 3.90871 26.5344 3.95374L26.6598 4.08211C29.758 7.25469 29.758 12.3201 26.6598 15.4926L15.1406 27.2883C12.068 30.4346 7.02663 30.4944 3.88031 27.4218C3.83528 27.3778 3.79077 27.3333 3.74679 27.2883L3.62143 27.1599C0.523208 23.9873 0.523209 18.922 3.62143 15.7494Z" fill="#2EE09A"/>
<path fill-rule="evenodd" clip-rule="evenodd" d="M26.5438 3.95375L37.9376 15.621C41.1055 18.865 41.1055 24.0443 37.9376 27.2883C34.865 30.4346 29.8236 30.4944 26.6773 27.4218C26.6323 27.3778 26.5878 27.3333 26.5438 27.2883L15.15 15.621C11.982 12.377 11.982 7.19771 15.15 3.95375C18.2225 0.807433 23.2639 0.747654 26.4103 3.82023C26.4553 3.8642 26.4998 3.90871 26.5438 3.95375Z" fill="#12B9F7"/>
<path fill-rule="evenodd" clip-rule="evenodd" d="M26.6756 4.09639L32.2273 9.78126L20.8334 21.4485L9.43963 9.78126L14.9913 4.09639C18.1422 0.869843 23.3122 0.808539 26.5387 3.95947C26.5849 4.00457 26.6305 4.05021 26.6756 4.09639Z" fill="#3F71F8"/>
</g>
<defs>
<clipPath id="clip0_2_12">
<rect width="40.625" height="29.6875" fill="white" transform="translate(0.6875 0.15625)"/>
</clipPath>
</defs>
</svg>
